<svg width="208" height="40" viewBox="0 0 208 40" fill="none" xmlns="http://www.w3.org/2000/svg">
<rect width="208" height="40" rx="20" fill="#FA89A3"/>
<path d="M73.3971 13.2849H78.7571C79.0345 13.2849 79.2638 13.3755 79.4451 13.5569C79.6371 13.7275 79.7331 13.9515 79.7331 14.2289C79.7331 14.4955 79.6371 14.7142 79.4451 14.8849C79.2638 15.0449 79.0345 15.1249 78.7571 15.1249H74.2771L74.4211 14.8529V17.9729L74.2931 17.8449H78.0371C78.3145 17.8449 78.5438 17.9355 78.7251 18.1169C78.9171 18.2875 79.0131 18.5115 79.0131 18.7889C79.0131 19.0555 78.9171 19.2742 78.7251 19.4449C78.5438 19.6049 78.3145 19.6849 78.0371 19.6849H74.3411L74.4211 19.5569V22.7889L74.2931 22.6449H78.7571C79.0345 22.6449 79.2638 22.7409 79.4451 22.9329C79.6371 23.1142 79.7331 23.3275 79.7331 23.5729C79.7331 23.8395 79.6371 24.0582 79.4451 24.2289C79.2638 24.3995 79.0345 24.4849 78.7571 24.4849H73.3971C73.1198 24.4849 72.8851 24.3942 72.6931 24.2129C72.5118 24.0209 72.4211 23.7862 72.4211 23.5089V14.2609C72.4211 13.9835 72.5118 13.7542 72.6931 13.5729C72.8851 13.3809 73.1198 13.2849 73.3971 13.2849ZM90.0734 13.2849C90.3294 13.2849 90.5374 13.3702 90.6974 13.5409C90.8574 13.7115 90.9374 13.9249 90.9374 14.1809V23.5089C90.9374 23.7862 90.8414 24.0209 90.6494 24.2129C90.468 24.3942 90.2387 24.4849 89.9614 24.4849C89.8227 24.4849 89.6787 24.4635 89.5294 24.4209C89.3907 24.3675 89.284 24.2982 89.2094 24.2129L82.9214 16.2289L83.3374 15.9729V23.5889C83.3374 23.8449 83.252 24.0582 83.0814 24.2289C82.9214 24.3995 82.708 24.4849 82.4414 24.4849C82.1854 24.4849 81.9774 24.3995 81.8174 24.2289C81.6574 24.0582 81.5774 23.8449 81.5774 23.5889V14.2609C81.5774 13.9835 81.668 13.7542 81.8494 13.5729C82.0414 13.3809 82.276 13.2849 82.5534 13.2849C82.7027 13.2849 82.8574 13.3169 83.0174 13.3809C83.1774 13.4342 83.2947 13.5195 83.3694 13.6369L89.4654 21.4129L89.1934 21.6049V14.1809C89.1934 13.9249 89.2734 13.7115 89.4334 13.5409C89.5934 13.3702 89.8067 13.2849 90.0734 13.2849ZM97.135 24.4849C96.8363 24.4849 96.591 24.3942 96.399 24.2129C96.207 24.0209 96.111 23.7862 96.111 23.5089V14.2289H98.191V23.5089C98.191 23.7862 98.0897 24.0209 97.887 24.2129C97.695 24.3942 97.4443 24.4849 97.135 24.4849ZM93.599 15.1249C93.3217 15.1249 93.087 15.0395 92.895 14.8689C92.7137 14.6982 92.623 14.4742 92.623 14.1969C92.623 13.9195 92.7137 13.7009 92.895 13.5409C93.087 13.3702 93.3217 13.2849 93.599 13.2849H100.703C100.98 13.2849 101.21 13.3702 101.391 13.5409C101.583 13.7115 101.679 13.9355 101.679 14.2129C101.679 14.4902 101.583 14.7142 101.391 14.8849C101.21 15.0449 100.98 15.1249 100.703 15.1249H93.599ZM104.511 24.4849C104.212 24.4849 103.945 24.3942 103.711 24.2129C103.476 24.0209 103.359 23.7862 103.359 23.5089V14.2609C103.359 13.9835 103.449 13.7542 103.631 13.5729C103.823 13.3809 104.057 13.2849 104.335 13.2849H108.943C109.497 13.2849 110.015 13.4342 110.495 13.7329C110.985 14.0209 111.38 14.4262 111.679 14.9489C111.977 15.4609 112.127 16.0529 112.127 16.7249C112.127 17.1302 112.041 17.5249 111.871 17.9089C111.711 18.2929 111.487 18.6395 111.199 18.9489C110.921 19.2582 110.607 19.4982 110.255 19.6689L110.271 19.3009C110.569 19.4609 110.815 19.6529 111.007 19.8769C111.209 20.0902 111.364 20.3249 111.471 20.5809C111.588 20.8262 111.657 21.0929 111.679 21.3809C111.721 21.6475 111.748 21.8822 111.759 22.0849C111.78 22.2875 111.812 22.4582 111.855 22.5969C111.908 22.7355 112.004 22.8422 112.143 22.9169C112.377 23.0555 112.521 23.2582 112.575 23.5249C112.639 23.7809 112.58 24.0102 112.399 24.2129C112.281 24.3515 112.132 24.4422 111.951 24.4849C111.769 24.5169 111.588 24.5169 111.407 24.4849C111.225 24.4422 111.076 24.3889 110.959 24.3249C110.777 24.2182 110.596 24.0635 110.415 23.8609C110.233 23.6475 110.084 23.3649 109.967 23.0129C109.86 22.6609 109.807 22.2075 109.807 21.6529C109.807 21.4715 109.775 21.3062 109.711 21.1569C109.647 20.9969 109.556 20.8635 109.439 20.7569C109.321 20.6395 109.172 20.5542 108.991 20.5009C108.809 20.4369 108.596 20.4049 108.351 20.4049H105.119L105.359 20.0369V23.5089C105.359 23.7862 105.284 24.0209 105.135 24.2129C104.985 24.3942 104.777 24.4849 104.511 24.4849ZM105.135 18.7569H108.863C109.055 18.7569 109.241 18.6715 109.423 18.5009C109.604 18.3195 109.753 18.0795 109.871 17.7809C109.988 17.4715 110.047 17.1355 110.047 16.7729C110.047 16.3035 109.919 15.9142 109.663 15.6049C109.417 15.2849 109.151 15.1249 108.863 15.1249H105.167L105.359 14.6129V19.1409L105.135 18.7569ZM118.455 15.7969L114.999 23.9249C114.924 24.1275 114.807 24.2875 114.647 24.4049C114.498 24.5115 114.332 24.5649 114.151 24.5649C113.863 24.5649 113.65 24.4849 113.511 24.3249C113.372 24.1649 113.303 23.9675 113.303 23.7329C113.303 23.6369 113.319 23.5355 113.351 23.4289L117.335 13.8609C117.42 13.6475 117.548 13.4822 117.719 13.3649C117.9 13.2475 118.092 13.1995 118.295 13.2209C118.487 13.2209 118.663 13.2795 118.823 13.3969C118.994 13.5035 119.116 13.6582 119.191 13.8609L123.127 23.2369C123.18 23.3755 123.207 23.5035 123.207 23.6209C123.207 23.9089 123.111 24.1382 122.919 24.3089C122.738 24.4795 122.535 24.5649 122.311 24.5649C122.119 24.5649 121.943 24.5062 121.783 24.3889C121.634 24.2715 121.516 24.1115 121.431 23.9089L117.991 15.8929L118.455 15.7969ZM115.495 21.9729L116.375 20.1329H120.695L120.999 21.9729H115.495ZM125.714 24.4849C125.415 24.4849 125.148 24.3942 124.914 24.2129C124.679 24.0209 124.562 23.7862 124.562 23.5089V14.2609C124.562 13.9835 124.652 13.7542 124.834 13.5729C125.026 13.3809 125.26 13.2849 125.538 13.2849H130.146C130.7 13.2849 131.218 13.4342 131.698 13.7329C132.188 14.0209 132.583 14.4262 132.882 14.9489C133.18 15.4609 133.33 16.0529 133.33 16.7249C133.33 17.1302 133.244 17.5249 133.074 17.9089C132.914 18.2929 132.69 18.6395 132.402 18.9489C132.124 19.2582 131.81 19.4982 131.458 19.6689L131.474 19.3009C131.772 19.4609 132.018 19.6529 132.21 19.8769C132.412 20.0902 132.567 20.3249 132.674 20.5809C132.791 20.8262 132.86 21.0929 132.882 21.3809C132.924 21.6475 132.951 21.8822 132.962 22.0849C132.983 22.2875 133.015 22.4582 133.058 22.5969C133.111 22.7355 133.207 22.8422 133.346 22.9169C133.58 23.0555 133.724 23.2582 133.778 23.5249C133.842 23.7809 133.783 24.0102 133.602 24.2129C133.484 24.3515 133.335 24.4422 133.154 24.4849C132.972 24.5169 132.791 24.5169 132.61 24.4849C132.428 24.4422 132.279 24.3889 132.162 24.3249C131.98 24.2182 131.799 24.0635 131.618 23.8609C131.436 23.6475 131.287 23.3649 131.17 23.0129C131.063 22.6609 131.01 22.2075 131.01 21.6529C131.01 21.4715 130.978 21.3062 130.914 21.1569C130.85 20.9969 130.759 20.8635 130.642 20.7569C130.524 20.6395 130.375 20.5542 130.194 20.5009C130.012 20.4369 129.799 20.4049 129.554 20.4049H126.322L126.562 20.0369V23.5089C126.562 23.7862 126.487 24.0209 126.338 24.2129C126.188 24.3942 125.98 24.4849 125.714 24.4849ZM126.338 18.7569H130.066C130.258 18.7569 130.444 18.6715 130.626 18.5009C130.807 18.3195 130.956 18.0795 131.074 17.7809C131.191 17.4715 131.25 17.1355 131.25 16.7729C131.25 16.3035 131.122 15.9142 130.866 15.6049C130.62 15.2849 130.354 15.1249 130.066 15.1249H126.37L126.562 14.6129V19.1409L126.338 18.7569Z" fill="white"/>
</svg>
