<svg width="120" height="39" viewBox="0 0 120 39" fill="none" xmlns="http://www.w3.org/2000/svg">
<rect width="120" height="39" rx="19.5" fill="#3187CD"/>
<path d="M26.8394 14.3644C27.3594 14.3644 27.8444 14.5144 28.2944 14.8144C28.7544 15.1144 29.1244 15.5194 29.4044 16.0294C29.6844 16.5394 29.8244 17.1094 29.8244 17.7394C29.8244 18.3594 29.6844 18.9244 29.4044 19.4344C29.1244 19.9444 28.7544 20.3544 28.2944 20.6644C27.8444 20.9644 27.3594 21.1144 26.8394 21.1144H24.0794L24.2294 20.8444V23.9494C24.2294 24.2094 24.1494 24.4294 23.9894 24.6094C23.8294 24.7794 23.6194 24.8644 23.3594 24.8644C23.1094 24.8644 22.9044 24.7794 22.7444 24.6094C22.5844 24.4294 22.5044 24.2094 22.5044 23.9494V15.2794C22.5044 15.0194 22.5894 14.8044 22.7594 14.6344C22.9394 14.4544 23.1594 14.3644 23.4194 14.3644H26.8394ZM26.8394 19.4044C27.0294 19.4044 27.2144 19.3244 27.3944 19.1644C27.5744 19.0044 27.7244 18.7994 27.8444 18.5494C27.9644 18.2894 28.0244 18.0194 28.0244 17.7394C28.0244 17.4494 27.9644 17.1794 27.8444 16.9294C27.7244 16.6794 27.5744 16.4794 27.3944 16.3294C27.2144 16.1694 27.0294 16.0894 26.8394 16.0894H24.0494L24.2294 15.8194V19.6444L24.0644 19.4044H26.8394ZM37.2742 16.8394C37.5342 16.8394 37.7492 16.9294 37.9192 17.1094C38.0892 17.2794 38.1742 17.4944 38.1742 17.7544V21.5644C38.1742 22.6244 37.8792 23.4644 37.2892 24.0844C36.6992 24.7044 35.8492 25.0144 34.7392 25.0144C33.6292 25.0144 32.7792 24.7044 32.1892 24.0844C31.6092 23.4644 31.3192 22.6244 31.3192 21.5644V17.7544C31.3192 17.4944 31.4042 17.2794 31.5742 17.1094C31.7442 16.9294 31.9592 16.8394 32.2192 16.8394C32.4792 16.8394 32.6942 16.9294 32.8642 17.1094C33.0342 17.2794 33.1192 17.4944 33.1192 17.7544V21.5644C33.1192 22.1744 33.2542 22.6294 33.5242 22.9294C33.7942 23.2194 34.1992 23.3644 34.7392 23.3644C35.2892 23.3644 35.6992 23.2194 35.9692 22.9294C36.2392 22.6294 36.3742 22.1744 36.3742 21.5644V17.7544C36.3742 17.4944 36.4592 17.2794 36.6292 17.1094C36.7992 16.9294 37.0142 16.8394 37.2742 16.8394ZM42.0729 23.9494C42.0729 24.2094 41.9829 24.4294 41.8029 24.6094C41.6329 24.7794 41.4179 24.8644 41.1579 24.8644C40.9079 24.8644 40.6979 24.7794 40.5279 24.6094C40.3579 24.4294 40.2729 24.2094 40.2729 23.9494V14.6794C40.2729 14.4194 40.3579 14.2044 40.5279 14.0344C40.7079 13.8544 40.9279 13.7644 41.1879 13.7644C41.4479 13.7644 41.6579 13.8544 41.8179 14.0344C41.9879 14.2044 42.0729 14.4194 42.0729 14.6794V23.9494ZM50.7359 16.6894C50.9959 16.6894 51.2109 16.7744 51.3809 16.9444C51.5509 17.1144 51.6359 17.3344 51.6359 17.6044V23.9494C51.6359 24.2094 51.5509 24.4294 51.3809 24.6094C51.2109 24.7794 50.9959 24.8644 50.7359 24.8644C50.4759 24.8644 50.2609 24.7794 50.0909 24.6094C49.9209 24.4294 49.8359 24.2094 49.8359 23.9494V23.2144L50.1659 23.3494C50.1659 23.4794 50.0959 23.6394 49.9559 23.8294C49.8159 24.0094 49.6259 24.1894 49.3859 24.3694C49.1459 24.5494 48.8609 24.7044 48.5309 24.8344C48.2109 24.9544 47.8609 25.0144 47.4809 25.0144C46.7909 25.0144 46.1659 24.8394 45.6059 24.4894C45.0459 24.1294 44.6009 23.6394 44.2709 23.0194C43.9509 22.3894 43.7909 21.6694 43.7909 20.8594C43.7909 20.0394 43.9509 19.3194 44.2709 18.6994C44.6009 18.0694 45.0409 17.5794 45.5909 17.2294C46.1409 16.8694 46.7509 16.6894 47.4209 16.6894C47.8509 16.6894 48.2459 16.7544 48.6059 16.8844C48.9659 17.0144 49.2759 17.1794 49.5359 17.3794C49.8059 17.5794 50.0109 17.7844 50.1509 17.9944C50.3009 18.1944 50.3759 18.3644 50.3759 18.5044L49.8359 18.6994V17.6044C49.8359 17.3444 49.9209 17.1294 50.0909 16.9594C50.2609 16.7794 50.4759 16.6894 50.7359 16.6894ZM47.7059 23.3644C48.1459 23.3644 48.5309 23.2544 48.8609 23.0344C49.1909 22.8144 49.4459 22.5144 49.6259 22.1344C49.8159 21.7544 49.9109 21.3294 49.9109 20.8594C49.9109 20.3794 49.8159 19.9494 49.6259 19.5694C49.4459 19.1894 49.1909 18.8894 48.8609 18.6694C48.5309 18.4494 48.1459 18.3394 47.7059 18.3394C47.2759 18.3394 46.8959 18.4494 46.5659 18.6694C46.2359 18.8894 45.9759 19.1894 45.7859 19.5694C45.6059 19.9494 45.5159 20.3794 45.5159 20.8594C45.5159 21.3294 45.6059 21.7544 45.7859 22.1344C45.9759 22.5144 46.2359 22.8144 46.5659 23.0344C46.8959 23.2544 47.2759 23.3644 47.7059 23.3644ZM54.4849 24.8644C54.2249 24.8644 54.0099 24.7794 53.8399 24.6094C53.6699 24.4294 53.5849 24.2094 53.5849 23.9494V17.7544C53.5849 17.4944 53.6699 17.2794 53.8399 17.1094C54.0099 16.9294 54.2249 16.8394 54.4849 16.8394C54.7449 16.8394 54.9599 16.9294 55.1299 17.1094C55.2999 17.2794 55.3849 17.4944 55.3849 17.7544V19.1644L55.2799 18.1594C55.3899 17.9194 55.5299 17.7094 55.6999 17.5294C55.8799 17.3394 56.0799 17.1844 56.2999 17.0644C56.5199 16.9344 56.7549 16.8394 57.0049 16.7794C57.2549 16.7194 57.5049 16.6894 57.7549 16.6894C58.0549 16.6894 58.3049 16.7744 58.5049 16.9444C58.7149 17.1144 58.8199 17.3144 58.8199 17.5444C58.8199 17.8744 58.7349 18.1144 58.5649 18.2644C58.3949 18.4044 58.2099 18.4744 58.0099 18.4744C57.8199 18.4744 57.6449 18.4394 57.4849 18.3694C57.3349 18.2994 57.1599 18.2644 56.9599 18.2644C56.7799 18.2644 56.5949 18.3094 56.4049 18.3994C56.2249 18.4794 56.0549 18.6094 55.8949 18.7894C55.7449 18.9694 55.6199 19.1944 55.5199 19.4644C55.4299 19.7244 55.3849 20.0344 55.3849 20.3944V23.9494C55.3849 24.2094 55.2999 24.4294 55.1299 24.6094C54.9599 24.7794 54.7449 24.8644 54.4849 24.8644ZM66.2429 23.9494C66.2429 24.2094 66.1529 24.4294 65.9729 24.6094C65.8029 24.7794 65.5879 24.8644 65.3279 24.8644C65.0779 24.8644 64.8679 24.7794 64.6979 24.6094C64.5279 24.4294 64.4429 24.2094 64.4429 23.9494V14.6794C64.4429 14.4194 64.5279 14.2044 64.6979 14.0344C64.8779 13.8544 65.0979 13.7644 65.3579 13.7644C65.6179 13.7644 65.8279 13.8544 65.9879 14.0344C66.1579 14.2044 66.2429 14.4194 66.2429 14.6794V23.9494ZM75.9744 20.8594C75.9744 21.6794 75.7894 22.4044 75.4194 23.0344C75.0594 23.6544 74.5694 24.1394 73.9494 24.4894C73.3394 24.8394 72.6544 25.0144 71.8944 25.0144C71.1344 25.0144 70.4444 24.8394 69.8244 24.4894C69.2144 24.1394 68.7244 23.6544 68.3544 23.0344C67.9944 22.4044 67.8144 21.6794 67.8144 20.8594C67.8144 20.0394 67.9944 19.3194 68.3544 18.6994C68.7244 18.0694 69.2144 17.5794 69.8244 17.2294C70.4444 16.8694 71.1344 16.6894 71.8944 16.6894C72.6544 16.6894 73.3394 16.8694 73.9494 17.2294C74.5694 17.5794 75.0594 18.0694 75.4194 18.6994C75.7894 19.3194 75.9744 20.0394 75.9744 20.8594ZM74.1744 20.8594C74.1744 20.3494 74.0694 19.9094 73.8594 19.5394C73.6594 19.1594 73.3844 18.8644 73.0344 18.6544C72.6944 18.4444 72.3144 18.3394 71.8944 18.3394C71.4744 18.3394 71.0894 18.4444 70.7394 18.6544C70.3994 18.8644 70.1244 19.1594 69.9144 19.5394C69.7144 19.9094 69.6144 20.3494 69.6144 20.8594C69.6144 21.3594 69.7144 21.7994 69.9144 22.1794C70.1244 22.5494 70.3994 22.8394 70.7394 23.0494C71.0894 23.2594 71.4744 23.3644 71.8944 23.3644C72.3144 23.3644 72.6944 23.2594 73.0344 23.0494C73.3844 22.8394 73.6594 22.5494 73.8594 22.1794C74.0694 21.7994 74.1744 21.3594 74.1744 20.8594ZM80.8797 16.6894C81.2997 16.6894 81.6847 16.7544 82.0347 16.8844C82.3847 17.0144 82.6847 17.1794 82.9347 17.3794C83.1947 17.5794 83.3947 17.7844 83.5347 17.9944C83.6847 18.1944 83.7597 18.3644 83.7597 18.5044L83.3697 18.6994V17.6044C83.3697 17.3444 83.4547 17.1294 83.6247 16.9594C83.7947 16.7794 84.0097 16.6894 84.2697 16.6894C84.5297 16.6894 84.7447 16.7744 84.9147 16.9444C85.0847 17.1144 85.1697 17.3344 85.1697 17.6044V24.2794C85.1697 25.1494 84.9797 25.8444 84.5997 26.3644C84.2297 26.8944 83.7397 27.2744 83.1297 27.5044C82.5197 27.7444 81.8647 27.8644 81.1647 27.8644C80.9647 27.8644 80.7047 27.8394 80.3847 27.7894C80.0647 27.7394 79.7597 27.6794 79.4697 27.6094C79.1797 27.5394 78.9597 27.4744 78.8097 27.4144C78.5097 27.2844 78.2997 27.1194 78.1797 26.9194C78.0697 26.7294 78.0497 26.5244 78.1197 26.3044C78.2097 26.0144 78.3547 25.8144 78.5547 25.7044C78.7547 25.6044 78.9647 25.5944 79.1847 25.6744C79.2847 25.7044 79.4497 25.7644 79.6797 25.8544C79.9097 25.9444 80.1597 26.0244 80.4297 26.0944C80.7097 26.1744 80.9547 26.2144 81.1647 26.2144C81.9147 26.2144 82.4697 26.0644 82.8297 25.7644C83.1897 25.4644 83.3697 25.0494 83.3697 24.5194V23.2144L83.5497 23.3494C83.5497 23.4794 83.4797 23.6394 83.3397 23.8294C83.2097 24.0094 83.0247 24.1894 82.7847 24.3694C82.5547 24.5494 82.2797 24.7044 81.9597 24.8344C81.6397 24.9544 81.2997 25.0144 80.9397 25.0144C80.2297 25.0144 79.5897 24.8394 79.0197 24.4894C78.4497 24.1294 77.9997 23.6394 77.6697 23.0194C77.3397 22.3894 77.1747 21.6694 77.1747 20.8594C77.1747 20.0394 77.3397 19.3194 77.6697 18.6994C77.9997 18.0694 78.4447 17.5794 79.0047 17.2294C79.5647 16.8694 80.1897 16.6894 80.8797 16.6894ZM81.1647 18.3394C80.7147 18.3394 80.3197 18.4494 79.9797 18.6694C79.6397 18.8894 79.3747 19.1894 79.1847 19.5694C78.9947 19.9494 78.8997 20.3794 78.8997 20.8594C78.8997 21.3294 78.9947 21.7544 79.1847 22.1344C79.3747 22.5144 79.6397 22.8144 79.9797 23.0344C80.3197 23.2544 80.7147 23.3644 81.1647 23.3644C81.6247 23.3644 82.0247 23.2544 82.3647 23.0344C82.7047 22.8144 82.9697 22.5144 83.1597 22.1344C83.3497 21.7544 83.4447 21.3294 83.4447 20.8594C83.4447 20.3794 83.3497 19.9494 83.1597 19.5694C82.9697 19.1894 82.7047 18.8894 82.3647 18.6694C82.0247 18.4494 81.6247 18.3394 81.1647 18.3394ZM88.8101 23.9494C88.8101 24.2094 88.7251 24.4294 88.5551 24.6094C88.3851 24.7794 88.1701 24.8644 87.9101 24.8644C87.6501 24.8644 87.4351 24.7794 87.2651 24.6094C87.0951 24.4294 87.0101 24.2094 87.0101 23.9494V17.7544C87.0101 17.4944 87.0951 17.2794 87.2651 17.1094C87.4351 16.9294 87.6501 16.8394 87.9101 16.8394C88.1701 16.8394 88.3851 16.9294 88.5551 17.1094C88.7251 17.2794 88.8101 17.4944 88.8101 17.7544V23.9494ZM87.8951 15.8644C87.5551 15.8644 87.3151 15.8094 87.1751 15.6994C87.0351 15.5894 86.9651 15.3944 86.9651 15.1144V14.8294C86.9651 14.5394 87.0401 14.3444 87.1901 14.2444C87.3501 14.1344 87.5901 14.0794 87.9101 14.0794C88.2601 14.0794 88.5051 14.1344 88.6451 14.2444C88.7851 14.3544 88.8551 14.5494 88.8551 14.8294V15.1144C88.8551 15.4044 88.7801 15.6044 88.6301 15.7144C88.4801 15.8144 88.2351 15.8644 87.8951 15.8644ZM94.9501 16.6894C95.6901 16.6894 96.2501 16.8444 96.6301 17.1544C97.0201 17.4644 97.2851 17.8794 97.4251 18.3994C97.5751 18.9094 97.6501 19.4794 97.6501 20.1094V23.9494C97.6501 24.2094 97.5651 24.4294 97.3951 24.6094C97.2251 24.7794 97.0101 24.8644 96.7501 24.8644C96.4901 24.8644 96.2751 24.7794 96.1051 24.6094C95.9351 24.4294 95.8501 24.2094 95.8501 23.9494V20.1094C95.8501 19.7794 95.8051 19.4844 95.7151 19.2244C95.6351 18.9544 95.4851 18.7394 95.2651 18.5794C95.0451 18.4194 94.7301 18.3394 94.3201 18.3394C93.9201 18.3394 93.5801 18.4194 93.3001 18.5794C93.0301 18.7394 92.8201 18.9544 92.6701 19.2244C92.5301 19.4844 92.4601 19.7794 92.4601 20.1094V23.9494C92.4601 24.2094 92.3751 24.4294 92.2051 24.6094C92.0351 24.7794 91.8201 24.8644 91.5601 24.8644C91.3001 24.8644 91.0851 24.7794 90.9151 24.6094C90.7451 24.4294 90.6601 24.2094 90.6601 23.9494V17.7544C90.6601 17.4944 90.7451 17.2794 90.9151 17.1094C91.0851 16.9294 91.3001 16.8394 91.5601 16.8394C91.8201 16.8394 92.0351 16.9294 92.2051 17.1094C92.3751 17.2794 92.4601 17.4944 92.4601 17.7544V18.3994L92.2351 18.3544C92.3251 18.1844 92.4551 18.0044 92.6251 17.8144C92.7951 17.6144 92.9951 17.4294 93.2251 17.2594C93.4551 17.0894 93.7151 16.9544 94.0051 16.8544C94.2951 16.7444 94.6101 16.6894 94.9501 16.6894Z" fill="white"/>
</svg>
